<svg width="96" height="35" viewBox="0 0 96 35" fill="none" xmlns="http://www.w3.org/2000/svg">
<path d="M48 0L50.9187 8.98278H60.3637L52.7225 14.5344L55.6412 23.5172L48 17.9656L40.3588 23.5172L43.2775 14.5344L35.6363 8.98278H45.0813L48 0Z" fill="black" fill-opacity="0.24"/>
<path d="M11 13L13.4697 20.6008H21.4616L14.996 25.2984L17.4656 32.8992L11 28.2016L4.53436 32.8992L7.00402 25.2984L0.538379 20.6008H8.53035L11 13Z" fill="black" fill-opacity="0.24"/>
<path d="M85 13L87.4697 20.6008H95.4616L88.996 25.2984L91.4656 32.8992L85 28.2016L78.5344 32.8992L81.004 25.2984L74.5384 20.6008H82.5303L85 13Z" fill="black" fill-opacity="0.24"/>
</svg>
