<svg width="407" height="407" viewBox="0 0 407 407" fill="none" xmlns="http://www.w3.org/2000/svg">
<circle cx="203.5" cy="203.5" r="203.5" fill="#F2F6FE" fill-opacity="0.06"/>
<circle cx="203.5" cy="203.5" r="178" stroke="#F2F6FE" stroke-opacity="0.2" stroke-dasharray="8 8"/>
<path d="M204 50L206.47 57.6008H214.462L207.996 62.2984L210.466 69.8992L204 65.2016L197.534 69.8992L200.004 62.2984L193.538 57.6008H201.53L204 50Z" fill="#F2F6FE" fill-opacity="0.24"/>
<path d="M168 61L170.47 68.6008H178.462L171.996 73.2984L174.466 80.8992L168 76.2016L161.534 80.8992L164.004 73.2984L157.538 68.6008H165.53L168 61Z" fill="#F2F6FE" fill-opacity="0.24"/>
<path d="M240 61L242.47 68.6008H250.462L243.996 73.2984L246.466 80.8992L240 76.2016L233.534 80.8992L236.004 73.2984L229.538 68.6008H237.53L240 61Z" fill="#F2F6FE" fill-opacity="0.24"/>
<rect x="94" y="111" width="220" height="24" rx="4" fill="#F2F6FE" fill-opacity="0.13"/>
<rect x="153" y="144" width="102" height="24" rx="4" fill="#F2F6FE" fill-opacity="0.13"/>
<rect x="140" y="308" width="127" height="11" rx="4" fill="#F2F6FE" fill-opacity="0.13"/>
<rect x="161" y="260" width="85" height="11" rx="4" fill="#F2F6FE" fill-opacity="0.22"/>
<rect x="84" y="200" width="239" height="38" rx="8" fill="#F2F6FE" fill-opacity="0.06"/>
<rect x="84" y="247" width="239" height="38" rx="8" fill="#F2F6FE" fill-opacity="0.13"/>
</svg>
